<svg xmlns="http://www.w3.org/2000/svg" version="1.1" width="250" height="250" shape-rendering="crispEdges"><rect width="250" height="250" x="0" y="0" fill="#F7931A" /><g transform="translate(23 95)"><rect width="6" height="6" x="6" y="6" fill="#FFFFFF" /><rect width="6" height="6" x="18" y="6" fill="#FFFFFF" /><rect width="6" height="6" x="30" y="6" fill="#FFFFFF" /><rect width="6" height="6" x="42" y="6" fill="#FFFFFF" /><rect width="6" height="6" x="54" y="6" fill="#FFFFFF" /><rect width="6" height="6" x="66" y="6" fill="#FFFFFF" /><rect width="6" height="6" x="78" y="6" fill="#FFFFFF" /><rect width="6" height="6" x="90" y="6" fill="#FFFFFF" /><rect width="6" height="6" x="102" y="6" fill="#FFFFFF" /><rect width="6" height="6" x="114" y="6" fill="#FFFFFF" /><rect width="6" height="6" x="126" y="6" fill="#FFFFFF" /><rect width="6" height="6" x="138" y="6" fill="#FFFFFF" /><rect width="6" height="6" x="150" y="6" fill="#FFFFFF" /><rect width="6" height="6" x="162" y="6" fill="#FFFFFF" /><rect width="6" height="6" x="174" y="6" fill="#FFFFFF" /><rect width="6" height="6" x="186" y="6" fill="#FFFFFF" /><rect width="6" height="6" x="6" y="12" fill="#FFFFFF" /><rect width="12" height="6" x="18" y="12" fill="#FFFFFF" /><rect width="12" height="6" x="36" y="12" fill="#FFFFFF" /><rect width="6" height="6" x="54" y="12" fill="#FFFFFF" /><rect width="6" height="6" x="66" y="12" fill="#FFFFFF" /><rect width="24" height="6" x="84" y="12" fill="#FFFFFF" /><rect width="6" height="6" x="162" y="12" fill="#FFFFFF" /><rect width="6" height="6" x="174" y="12" fill="#FFFFFF" /><rect width="6" height="6" x="192" y="12" fill="#FFFFFF" /><rect width="12" height="6" x="6" y="18" fill="#FFFFFF" /><rect width="6" height="6" x="24" y="18" fill="#FFFFFF" /><rect width="6" height="6" x="36" y="18" fill="#FFFFFF" /><rect width="12" height="6" x="60" y="18" fill="#FFFFFF" /><rect width="6" height="6" x="78" y="18" fill="#FFFFFF" /><rect width="6" height="6" x="90" y="18" fill="#FFFFFF" /><rect width="6" height="6" x="102" y="18" fill="#FFFFFF" /><rect width="12" height="6" x="114" y="18" fill="#FFFFFF" /><rect width="12" height="6" x="138" y="18" fill="#FFFFFF" /><rect width="6" height="6" x="156" y="18" fill="#FFFFFF" /><rect width="6" height="6" x="174" y="18" fill="#FFFFFF" /><rect width="6" height="6" x="6" y="24" fill="#FFFFFF" /><rect width="6" height="6" x="18" y="24" fill="#FFFFFF" /><rect width="6" height="6" x="30" y="24" fill="#FFFFFF" /><rect width="6" height="6" x="54" y="24" fill="#FFFFFF" /><rect width="12" height="6" x="66" y="24" fill="#FFFFFF" /><rect width="24" height="6" x="90" y="24" fill="#FFFFFF" /><rect width="12" height="6" x="132" y="24" fill="#FFFFFF" /><rect width="6" height="6" x="174" y="24" fill="#FFFFFF" /><rect width="12" height="6" x="186" y="24" fill="#FFFFFF" /><rect width="6" height="6" x="6" y="30" fill="#FFFFFF" /><rect width="18" height="6" x="24" y="30" fill="#FFFFFF" /><rect width="6" height="6" x="48" y="30" fill="#FFFFFF" /><rect width="24" height="6" x="66" y="30" fill="#FFFFFF" /><rect width="18" height="6" x="102" y="30" fill="#FFFFFF" /><rect width="6" height="6" x="126" y="30" fill="#FFFFFF" /><rect width="6" height="6" x="138" y="30" fill="#FFFFFF" /><rect width="12" height="6" x="150" y="30" fill="#FFFFFF" /><rect width="6" height="6" x="168" y="30" fill="#FFFFFF" /><rect width="6" height="6" x="186" y="30" fill="#FFFFFF" /><rect width="18" height="6" x="6" y="36" fill="#FFFFFF" /><rect width="6" height="6" x="30" y="36" fill="#FFFFFF" /><rect width="18" height="6" x="42" y="36" fill="#FFFFFF" /><rect width="6" height="6" x="66" y="36" fill="#FFFFFF" /><rect width="12" height="6" x="78" y="36" fill="#FFFFFF" /><rect width="12" height="6" x="96" y="36" fill="#FFFFFF" /><rect width="12" height="6" x="114" y="36" fill="#FFFFFF" /><rect width="30" height="6" x="138" y="36" fill="#FFFFFF" /><rect width="18" height="6" x="180" y="36" fill="#FFFFFF" /><rect width="6" height="6" x="6" y="42" fill="#FFFFFF" /><rect width="30" height="6" x="18" y="42" fill="#FFFFFF" /><rect width="6" height="6" x="60" y="42" fill="#FFFFFF" /><rect width="12" height="6" x="72" y="42" fill="#FFFFFF" /><rect width="6" height="6" x="102" y="42" fill="#FFFFFF" /><rect width="6" height="6" x="120" y="42" fill="#FFFFFF" /><rect width="30" height="6" x="150" y="42" fill="#FFFFFF" /><rect width="192" height="6" x="6" y="48" fill="#FFFFFF" /><g transform="translate(102 77)"><text text-anchor="middle" lengthAdjust="spacingAndGlyphs" style="font-family: 'Courier New'; font-size: 24px;" fill="#FFFFFF">Bitgener</text></g></g></svg>